<!DOCTYPE svg PUBLIC "-//W3C//DTD SVG 1.1//EN" "http://www.w3.org/Graphics/SVG/1.1/DTD/svg11.dtd">
<!-- Uploaded to: SVG Repo, www.svgrepo.com, Transformed by: SVG Repo Mixer Tools -->
<svg width="800px" height="800px" viewBox="-25.51 0 345.45 345.45" xmlns="http://www.w3.org/2000/svg" fill="#000000" stroke="#000000">
<g id="SVGRepo_bgCarrier" stroke-width="0"/>
<g id="SVGRepo_tracerCarrier" stroke-linecap="round" stroke-linejoin="round"/>
<g id="SVGRepo_iconCarrier">
<defs>
<style>.a{fill:#ffffff;}.b{fill:#957f6e;}.c{fill:#211715;}.d{fill:#f4b867;}.e{fill:#211916;}</style>
</defs>
<path class="a" d="M169,88.744a8.03,8.03,0,0,1,6.425-1.88,7.585,7.585,0,0,1,5.452,3.625,10.714,10.714,0,0,1,1.122,4.313,32.129,32.129,0,0,1-3.275,17.029,20.412,20.412,0,0,1-5.28,6.929,13.53,13.53,0,0,1-6.3,2.838s-.389.06-1.081.182c-.516,1.927-1.094,3.549-1.378,4.412-1.81,4.912-11.831,21.756-24.509,28.228a79.018,79.018,0,0,0,1.229,12.52c.7,3.994.481,7.564,6.034,9.569.367.133,10.753,4.5,11.314,4.733,0,0,6.556,41.222-41.444,41.222s-40.444-43.555-40.444-43.555c1.069-.365,6.009-2.267,6.377-2.4,5.553-2,5.333-5.575,6.033-9.569A79.25,79.25,0,0,0,90.5,154.531a47.321,47.321,0,0,1-14.961-12.294,54.622,54.622,0,0,1-10.413-20.326l-2.052-.313a13.531,13.531,0,0,1-6.3-2.838,20.412,20.412,0,0,1-5.28-6.929A32.129,32.129,0,0,1,48.227,94.8a10.7,10.7,0,0,1,1.122-4.313A7.585,7.585,0,0,1,54.8,86.864a8.03,8.03,0,0,1,6.425,1.88S53.012,36.39,113.456,36.39,169,88.744,169,88.744Z"/>
<path class="b" d="M70.969,164.221c7.535-1.146,13.934-4.792,16.774-9.052l.987-1.584a48.965,48.965,0,0,1-13.188-11.348,54.622,54.622,0,0,1-10.413-20.326l-2.052-.313a13.531,13.531,0,0,1-6.3-2.838,16.647,16.647,0,0,1-2.187-2.149,26.753,26.753,0,0,0-2.707,8.946,43.777,43.777,0,0,0-.3,5.964q.011.607.044,1.218c.237,4.349,1.253,8.78,1.468,13.112.218,4.72-1.011,9.367-5.513,10.9-.178.06-.214.636-.209.783a2.051,2.051,0,0,0,.362,1.009,6.964,6.964,0,0,0,2.308,2.023C55.067,163.64,62.792,165.465,70.969,164.221Z"/>
<path class="b" d="M177.468,53.3c-.2-1.184-.411-2.281-.613-3.267C171.271,22.654,143.691.917,114.767,2.506,85.844.917,58.263,22.654,52.679,50.037c-1.513,7.386-1.332,20.022.044,25.918L55.492,86.8a7.971,7.971,0,0,1,5.734,1.943c11.431-7.929,30.821-21.7,40.861-30.338-.826,5.125-3.76,13.842-.064,12.946,15.434-3.574,30.226-10.781,39.17-22.025,1.885,6.639,5,15.608,7.289,19.527C151.721,74.4,161.106,86.879,169,88.744a8.03,8.03,0,0,1,6.425-1.88,7.692,7.692,0,0,1,1,.219C180.441,77.774,179.087,62.742,177.468,53.3Z"/>
<path class="c" d="M55.006,75.551a49.555,49.555,0,0,1-.969-9.647,86.538,86.538,0,0,1,.422-11.775A50.267,50.267,0,0,1,61.4,34.208,61.1,61.1,0,0,1,95.391,7.371a55.018,55.018,0,0,1,10.9-2.274c3.776-.375,7.585-.268,11.372-.273a56.05,56.05,0,0,1,21.757,4.462,60.957,60.957,0,0,1,31.41,30.033,64.565,64.565,0,0,1,5.034,19.406c.919,7.419,1.426,15.283-.176,22.644a28.75,28.75,0,0,1-1.544,4.984,2.415,2.415,0,0,0,1.676,2.953,2.461,2.461,0,0,0,2.952-1.677c3.048-7.3,3-15.861,2.421-23.618-.547-7.275-1.553-14.783-3.994-21.687-5.3-14.992-16.687-27.556-30.694-34.958A63.259,63.259,0,0,0,123.419.315,111.126,111.126,0,0,0,111.507.024a59.8,59.8,0,0,0-12.04,1.32A65.982,65.982,0,0,0,60.239,27.231a58.188,58.188,0,0,0-9.654,21.14,73.617,73.617,0,0,0-.964,23.574,42.116,42.116,0,0,0,.757,4.882c.684,3.011,5.313,1.737,4.628-1.276Z"/>
<path class="c" d="M139.107,50.771c1.118,3.822,2.359,7.612,3.77,11.336a51,51,0,0,0,3.979,8.7,64.718,64.718,0,0,0,12.3,14.84c2.673,2.332,5.712,4.534,9.206,5.409,3,.749,4.276-3.878,1.276-4.629-5.359-1.341-9.964-6.6-13.458-10.836a50.272,50.272,0,0,1-8.32-13.852c-1.563-4.014-2.91-8.114-4.119-12.247-.865-2.959-5.5-1.7-4.629,1.276Z"/>
<path class="c" d="M139.651,47.434A55.5,55.5,0,0,1,120.64,62.282a80.964,80.964,0,0,1-11.7,4.692q-3.142,1-6.349,1.777c-.263.064-.541.116-.8.193-.393.116-.45-.081-.128.067-.145-.067-.325-.195.177.049a2.232,2.232,0,0,1,.6.352.628.628,0,0,1,.23.335c0-.069-.045-.458-.047-.133,0,.365-.01-.229-.01-.3-.024-3.308,1.225-6.827,1.8-10.271a2.422,2.422,0,0,0-4.011-2.335C90.314,65.354,79.371,73.039,68.543,80.7q-4.251,3.006-8.528,5.974a2.462,2.462,0,0,0-.861,3.284,2.421,2.421,0,0,0,3.283.861c11.3-7.843,22.532-15.823,33.4-24.268,2.694-2.094,5.361-4.224,7.951-6.446l-4.011-2.335c-.611,3.673-1.891,7.34-1.969,11.085a4.968,4.968,0,0,0,1.576,4.229c1.752,1.337,3.98.439,5.883-.055A82.029,82.029,0,0,0,131.58,61.4a53.671,53.671,0,0,0,11.465-10.571,2.475,2.475,0,0,0,0-3.394,2.417,2.417,0,0,0-3.394,0Z"/>
<path class="c" d="M52.515,115.4c-3.1,6.137-3.809,13.16-3.065,19.933.4,3.622,1.15,7.222,1.261,10.872.068,2.245-.122,4.884-1.595,6.71-.775.96-1.729,1.163-2.74,1.754-1.644.961-1.661,3.249-.887,4.764,1.363,2.668,4.739,4.112,7.376,5.181a35.74,35.74,0,0,0,19.6,1.778c6.576-1.182,13.479-4.356,17.349-10.009,1.75-2.556-2.408-4.959-4.144-2.423-3.661,5.347-11.313,7.731-17.463,8.167a31.823,31.823,0,0,1-11.188-1.136,24.2,24.2,0,0,1-4.274-1.665,15.577,15.577,0,0,1-2.138-1.251c-.231-.17-.47-.492-.706-.625-.3-.17-.023-.268-.115.057l-.617,1.059.11-.128-1.059.618c7.672-2.774,7.7-11.145,6.8-17.973-1.04-7.83-2.064-15.921,1.638-23.26,1.388-2.751-2.751-5.184-4.144-2.423Z"/>
<path class="c" d="M170.692,90.441a5.518,5.518,0,0,1,7.923.949,9.224,9.224,0,0,1,1.066,4.754,28.7,28.7,0,0,1-.341,6.065c-1.211,7.083-4.944,15.719-12.835,17.075a2.419,2.419,0,0,0-1.676,2.952,2.455,2.455,0,0,0,2.952,1.676c8.171-1.4,13.02-9.12,15.256-16.488a33.914,33.914,0,0,0,1.407-11.951c-.256-3.959-1.454-7.683-5.1-9.744A10.537,10.537,0,0,0,167.3,87.047a2.421,2.421,0,0,0,0,3.394,2.448,2.448,0,0,0,3.394,0Z"/>
<path class="c" d="M164.661,115.62a26.975,26.975,0,0,1-1.276,6.8c-.255.858-.537,1.707-.821,2.555-.077.229-.151.46-.235.687-.066.179-.365.846-.056.156a53.835,53.835,0,0,1-3.583,6.565,63.959,63.959,0,0,1-14.278,16.468,27.2,27.2,0,0,1-10.587,5.358c-3.009.692-1.736,5.321,1.276,4.629,8.045-1.85,14.78-7.653,20.082-13.725a69.309,69.309,0,0,0,11.052-16.461,35.143,35.143,0,0,0,3.226-13.032c.1-3.09-4.7-3.086-4.8,0Z"/>
<path class="c" d="M62.923,87.047a10.5,10.5,0,0,0-10.613-1.98c-3.931,1.551-5.9,4.858-6.4,8.928a32.942,32.942,0,0,0,5.766,22.774,17.219,17.219,0,0,0,10.759,7.143,2.471,2.471,0,0,0,2.953-1.676,2.42,2.42,0,0,0-1.677-2.952c-7.889-1.355-11.623-9.993-12.834-17.075a28.624,28.624,0,0,1-.35-5.841c.06-1.651.133-3.553,1.075-4.978a5.514,5.514,0,0,1,7.923-.949,2.461,2.461,0,0,0,3.394,0,2.421,2.421,0,0,0,0-3.394Z"/>
<path class="c" d="M61.086,114.844c2.923,16.865,12.063,33.37,27.689,41.509a37.5,37.5,0,0,0,13.559,4.056,2.415,2.415,0,0,0,2.4-2.4,2.454,2.454,0,0,0-2.4-2.4c-16.111-1.67-28.665-16.118-33.725-30.634a71.893,71.893,0,0,1-2.894-11.407,2.42,2.42,0,0,0-2.952-1.676,2.455,2.455,0,0,0-1.677,2.952Z"/>
<path class="d" d="M153.035,336.537c-1.595-48.962,2.555-142.6,3.612-160.69,15.034,5.962,25.738,12.126,39.21,20.952l-1.894,57.6c0,11.466-2.782,22.223-4.229,33.866-.289,13.157,1.184,27.88,1.184,48.43"/>
<path class="a" d="M83.588,336.606c1.373-42.895-1.511-120.8-2.943-151.4a48.858,48.858,0,0,0,39.062,19.608c13.589-.183,27.269-6.8,36.372-17.773-1.506,31.405-4.423,107.157-3.044,149.5"/>
<path class="e" d="M80.708,189.126a51.733,51.733,0,0,0,29.147,17.158,49.183,49.183,0,0,0,32.858-5.236,52.073,52.073,0,0,0,15.059-12.322,2.467,2.467,0,0,0,0-3.394,2.418,2.418,0,0,0-3.394,0,47.769,47.769,0,0,1-26.5,16.157,44.041,44.041,0,0,1-29.765-4.443A47.981,47.981,0,0,1,84.1,185.732a2.42,2.42,0,0,0-3.394,0,2.449,2.449,0,0,0,0,3.394Z"/>
<path class="e" d="M88.1,154.526a74.421,74.421,0,0,1-.72,9.131,67.439,67.439,0,0,1-1.115,6.658c-.077.311-.255.907-.293,1a7.819,7.819,0,0,1-.57,1.02,6.508,6.508,0,0,1-1.849,1.434,34.847,34.847,0,0,1-4.976,1.769,2.457,2.457,0,0,0-1.676,2.952,2.423,2.423,0,0,0,2.952,1.676,39.488,39.488,0,0,0,6.274-2.331,9.521,9.521,0,0,0,4.564-5.533,43.738,43.738,0,0,0,1.252-6.932,84.251,84.251,0,0,0,.957-10.848c.06-3.09-4.74-3.09-4.8,0Z"/>
<path class="d" d="M39.279,336.608c-2.985,2.645-6.156,5.386-10.055,6.226-7.074,1.522-13.891-3.734-18.024-9.673-9.429-13.55-9.45-31.714-8.262-48.178,1.8-24.963,7.07-46.8,17.827-69.394A49.417,49.417,0,0,1,38.5,195.321c13.358-8.752,26.792-14.359,41.627-20.269,1.014,17.171,5.036,112.373,3.462,161.554"/>
<path class="e" d="M77.726,175.052c.354,6,.612,12.011.872,18.018q.657,15.144,1.176,30.294.645,18.612,1.1,37.231.46,19.149.632,38.3c.084,11.338.075,22.68-.213,34.016q-.047,1.846-.105,3.692c-.1,3.09,4.7,3.086,4.8,0,.35-11.025.4-22.059.346-33.088-.057-12.69-.263-25.38-.547-38.067q-.422-18.849-1.063-37.692-.528-15.724-1.187-31.446c-.28-6.622-.565-13.244-.931-19.861q-.039-.7-.08-1.4c-.18-3.07-4.982-3.09-4.8,0Z"/>
<path class="e" d="M79.488,172.738c-9.553,3.807-19.1,7.7-28.247,12.41-8.39,4.321-16.968,9.13-23.508,16.054a51.284,51.284,0,0,0-9.04,13.176,2.466,2.466,0,0,0,.861,3.283,2.421,2.421,0,0,0,3.284-.861A47.559,47.559,0,0,1,39.4,197.6a171.081,171.081,0,0,1,25.972-13.859c5.083-2.239,10.234-4.316,15.393-6.372a2.475,2.475,0,0,0,1.677-2.953,2.418,2.418,0,0,0-2.953-1.676Z"/>
<path class="e" d="M137.775,154.526a98.2,98.2,0,0,0,1.41,13.62c.437,2.735.8,5.393,2.679,7.576,1.694,1.97,4.137,2.787,6.48,3.7,1.879.73,3.766,1.445,5.634,2.206a2.417,2.417,0,0,0,2.952-1.677A2.459,2.459,0,0,0,155.254,177c-1.651-.672-3.319-1.305-4.98-1.951s-3.614-1.151-4.835-2.511c-1.171-1.3-1.322-3.825-1.672-5.947a84.267,84.267,0,0,1-1.192-12.061c-.061-3.085-4.861-3.095-4.8,0Z"/>
<path class="e" d="M48.7,242.953,48.7,267.411c0,3.088,4.8,3.093,4.8,0l.006-24.458c0-3.089-4.8-3.094-4.8,0Z"/>
<path class="e" d="M155.435,336.537c-.355-10.968-.4-21.946-.343-32.918.064-12.592.281-25.183.578-37.771q.437-18.544,1.1-37.083.549-15.691,1.232-31.376c.294-6.705.6-13.41.968-20.112q.039-.715.081-1.43l-3.038,2.314c13.676,5.441,26.343,12.664,38.637,20.71,2.592,1.7,5-2.458,2.422-4.145-6.263-4.1-12.612-8.079-19.2-11.646a192.569,192.569,0,0,0-20.586-9.547c-1.544-.615-2.957.918-3.038,2.314-.357,6.117-.634,12.238-.908,18.359q-.678,15.14-1.22,30.283-.663,18.323-1.134,36.651c-.32,12.663-.563,25.329-.664,38-.089,11.267-.083,22.539.209,33.8q.047,1.8.1,3.6c.1,3.081,4.9,3.1,4.8,0Z"/>
<path class="a" d="M127.433,239.154a6.9,6.9,0,0,0-1.218-.115q-1.16,0-2.222.013v-6.179c0-4-5.768-4.234-5.768-4.234h-2.47c-6.04,0-12.03,3.63-15.72,6.46-2.86,2.18-5.76,4-8.62,6.19-3.31,2.53-6.7,5.13-9.01,8.61a62.372,62.372,0,0,0-3.34,6.05c-1.98,3.89-6.52,6.94-10.312,9.27,4.6,8.74,9.416,17.373,14.155,26.137,1.943-1.36,10.858-5.3,13.247-5.247,5.27.12,8.28-.18,16.06-.34,3.73-.07,8.61-.04,11.12-.57,3.722-.794,7.351-3.914,7.227-11.423,3.414-.912,3.82-4.17,3.82-5.459,0-2.066-.638-5.016-4.42-5.722l-1.328-.248.1,0c1.834-.066,6.648-.521,6.648-5.985,0-4.285-4.121-6.124-6.328-6.124h-1.8c1.568-.034,5.382-.7,5.33-5.841C132.554,241.3,129.84,239.594,127.433,239.154Z"/>
<path class="a" d="M118.118,336.316c25.193,0,129.025.221,151.264.221,0-31.365-.074-158.664-.074-188.517-14.044,0-105.194.278-151.447.278C118.511,201.283,118.118,309.968,118.118,336.316Z"/>
<path class="e" d="M118.118,338.716q11.262,0,22.524.022,16.67.022,33.339.053l37.172.064q16.773.029,33.546.055,11.469.016,22.937.026h1.746a2.435,2.435,0,0,0,2.4-2.4q0-13.932-.007-27.863-.007-20.65-.018-41.3l-.021-45.83q-.01-20.937-.019-41.874-.006-14.657-.009-29.312V148.02a2.435,2.435,0,0,0-2.4-2.4q-8.089,0-16.18.028-14.124.03-28.25.066-17.478.042-34.957.08-18.211.04-36.425.07-16.065.025-32.13.034h-3.5a2.432,2.432,0,0,0-2.4,2.4q.222,18.189.272,36.38.093,21.477.1,42.955.016,21.682-.012,43.366-.021,18.805-.059,37.611-.024,12.812-.041,25.623,0,1.041,0,2.083c0,3.089,4.8,3.094,4.8,0q0-11.911.035-23.823.033-18.246.06-36.492.027-21.5.021-42.995-.009-21.667-.081-43.334-.069-18.691-.246-37.381-.021-2-.046-3.993l-2.4,2.4q15.692,0,31.384-.027,18.019-.027,36.04-.067,17.711-.037,35.421-.08,14.757-.034,29.515-.07,8.953-.021,17.908-.034h1.179l-2.4-2.4q0,13.575.007,27.151l.018,40.932.021,45.81q.011,21.1.019,42.2.006,14.989.009,29.98v2.445l2.4-2.4q-10.566,0-21.133-.022-16.311-.024-32.622-.053L178.5,334q-17.089-.029-34.18-.055-12.122-.018-24.245-.027h-1.954C115.03,333.916,115.025,338.716,118.118,338.716Z"/>
<path class="a" d="M106.379,256.618c0-9.267,0-16.561,0-16.561,7.642-.61,12.169-1.018,19.835-1.018,2.595,0,6.334,1.723,6.371,5.355.052,5.145-3.762,5.807-5.33,5.841h1.8c2.207,0,6.328,1.839,6.328,6.124,0,5.464-4.814,5.919-6.648,5.985l-.1,0,1.327.248c3.782.706,4.42,3.656,4.42,5.722,0,1.289-.406,4.547-3.82,5.459.125,7.508-3.505,10.629-7.227,11.423-2.51.53-7.39.5-11.12.57-2.306.047-4.193.107-5.843.164C106.376,278.015,106.378,266.251,106.379,256.618Z"/>
<path class="e" d="M69.966,267.291c3.492-2.154,7.051-4.507,9.608-7.77a40.8,40.8,0,0,0,3.37-5.84,23.869,23.869,0,0,1,3.785-5.3,71,71,0,0,1,10.6-8.39c3.514-2.447,6.813-5.177,10.707-7.021a18.994,18.994,0,0,1,6.456-1.878c1.238-.1,2.492-.051,3.733-.051,3.088,0,3.093-4.8,0-4.8a27.539,27.539,0,0,0-9.714,1.365,45.457,45.457,0,0,0-11.055,6.438c-3.926,2.851-7.975,5.518-11.675,8.671a31.077,31.077,0,0,0-4.724,4.956,41.843,41.843,0,0,0-3.646,6.247c-2.157,4.225-5.919,6.794-9.868,9.23-2.624,1.619-.216,5.773,2.423,4.145Z"/>
<path class="e" d="M106.38,242.457c3.5-.279,6.99-.577,10.492-.771q2.513-.138,5.028-.2,1.326-.031,2.653-.042c.473,0,.947-.011,1.42-.006.1,0,.909.029.621,0,2.1.248,3.82,1.458,3.574,3.741a5.039,5.039,0,0,1-.335,1.261,1.736,1.736,0,0,1-.742.9c.38-.3-.964.408-.383.2a8.249,8.249,0,0,1-1.146.3c-.063.013.444,0-.048-.009-.29,0-.584.017-.875.022-1.006.018-2.012.025-3.017.031-2.1.012-4.2.013-6.3.055-3.084.062-3.095,4.862,0,4.8,2.172-.044,4.345-.043,6.517-.056a30.864,30.864,0,0,0,4.912-.2,7.3,7.3,0,0,0,5.788-4.947,7.95,7.95,0,0,0-3.336-9.481c-3.2-1.954-7.192-1.435-10.765-1.318-4.7.153-9.379.554-14.062.928a2.461,2.461,0,0,0-2.4,2.4,2.419,2.419,0,0,0,2.4,2.4Z"/>
<path class="e" d="M129.057,252.635c.207,0,.763.125.091-.028.214.049.431.077.643.132s.394.117.591.18c.075.024.44.17.142.046-.323-.135.168.085.229.117a7.126,7.126,0,0,1,.677.392c.111.073.221.149.327.228-.029-.022-.292-.242-.092-.06s.4.374.585.574-.02-.05-.046-.082a4.688,4.688,0,0,1,.351.531c.073.125.139.253.2.382-.02-.04-.123-.326-.029-.062a5.647,5.647,0,0,1,.241.894c.07.391-.011-.322,0,.094,0,.129.012.257.013.386,0,.177-.014.353-.016.53,0,.671.105-.283-.035.325-.058.251-.119.5-.195.743-.166.536.091-.052-.114.256-.1.153-.483.68-.138.279-.173.2-.364.372-.547.562-.225.235.359-.235.088-.062-.094.06-.183.126-.278.185-.162.1-.339.179-.5.278-.343.21.058-.017.132-.045-.1.037-.2.079-.3.112-.221.072-.441.142-.666.2-.167.042-.336.08-.5.113-.092.018-.189.029-.28.05-.425.1.24-.052.234-.028a4.625,4.625,0,0,1-.936.079c-1.783.087-3.578.039-5.362.034-2.183-.006-4.366-.025-6.55-.026-3.088,0-3.093,4.8,0,4.8,2.221,0,4.441.021,6.662.027,1.925,0,3.888.1,5.808-.074a9.285,9.285,0,0,0,6.336-2.743,8.671,8.671,0,0,0,.98-9.523,9.2,9.2,0,0,0-7.747-4.6c-3.09-.052-3.09,4.748,0,4.8Z"/>
<path class="e" d="M129.324,264.909a8.371,8.371,0,0,1,.843.21c.11.035.22.072.328.113-.041-.015-.307-.149-.073-.023.211.113.412.232.615.36-.373-.234.023.027.163.168.156.158.359.583.133.129.076.152.187.29.268.44.039.073.07.157.114.227.166.263-.094-.413-.049-.11a5.611,5.611,0,0,0,.17.55c.046.18.06.377.117.552.08.247-.029-.239-.03-.248,0,.077.019.153.024.23.019.309.04.617.034.927,0,.2-.029.4-.037.6-.014.359.132-.668.018-.148-.03.136-.051.274-.084.41-.063.268-.193.534-.245.8-.046.237.076-.274.112-.259,0,0-.1.22-.121.25-.081.145-.167.288-.249.432-.27.473.26-.228-.021.047-.109.106-.21.224-.317.333-.074.075-.163.134-.237.209.022-.022.382-.236.16-.131a5.713,5.713,0,0,0-.514.307c-.113.07-.4.138.075-.018-.091.03-.179.07-.271.1-.195.055-.388.111-.585.16-.066.016-.5.1-.217.051.271-.043-.108.01-.136.012-.294.019-.587.028-.882.029-1.079.006-2.159.011-3.238.031-2.461.044-4.92.1-7.381.1a2.4,2.4,0,0,0,0,4.8c2.5,0,4.991-.061,7.487-.105,2.607-.046,5.362.23,7.725-1.1,3.319-1.865,4.317-6.075,3.461-9.571a7.424,7.424,0,0,0-5.884-5.5,2.459,2.459,0,0,0-2.952,1.676,2.423,2.423,0,0,0,1.676,2.952Z"/>
<path class="e" d="M84.116,293.431a37.736,37.736,0,0,1,8.252-3.841c.748-.275,1.5-.537,2.27-.758.283-.082.568-.16.856-.226.156-.035.314-.062.47-.1.257-.059-.537-.023,0,0,1.776.1,3.582.03,5.36-.013,4.483-.108,8.962-.305,13.447-.37,3.994-.057,8.572.24,12.192-1.747,4.422-2.427,5.959-7.484,6.007-12.234.031-3.09-4.769-3.092-4.8,0a11.678,11.678,0,0,1-1.22,5.683,5.9,5.9,0,0,1-2.729,2.572c-.43.223-.056.071-.516.206-.334.1-.663.2-1,.274a16.765,16.765,0,0,1-2.532.282c-2.328.146-4.664.152-7,.187-4.243.064-8.48.291-12.722.366-1.584.028-3.21-.114-4.786.022a17.271,17.271,0,0,0-4.3,1.122,43.429,43.429,0,0,0-9.668,4.423c-2.537,1.731-.138,5.892,2.423,4.145Z"/>
<path class="d" d="M63.3,258.468c-11.392,7.978-21.6,16.587-33.547,25.329v58.915a36.059,36.059,0,0,0,11.213-5.656c15.4-11.2,27.782-21.915,41.4-33.979,1.809-1.6,3.783-3.605,3.516-6.007-.153-1.377-1.207-2.436-1.863-3.655-6.488-12.062-13.154-23.84-19.272-35.953Q64.02,257.963,63.3,258.468Z"/>
<path class="e" d="M18.693,214.378A187.319,187.319,0,0,0,2.826,265.069,230.184,230.184,0,0,0,.154,291.48,99.79,99.79,0,0,0,1.74,316.6c1.682,7.9,5,15.857,10.628,21.78a23.026,23.026,0,0,0,10.274,6.558c4.156,1.144,8.123.257,11.983-1.435a58.117,58.117,0,0,0,11.215-7.069q5.7-4.248,11.256-8.691c7.029-5.614,13.871-11.456,20.636-17.385q2.654-2.325,5.294-4.664a19.253,19.253,0,0,0,4.252-4.588,6.732,6.732,0,0,0,.376-6.31c-.4-.861-.995-1.606-1.47-2.425-.609-1.052-1.159-2.142-1.738-3.211-4.761-8.785-9.625-17.516-14.261-26.368q-1.707-3.256-3.367-6.538a2.413,2.413,0,0,0-3.283-.861c-12.018,8.3-23.22,17.7-34.994,26.335a2.472,2.472,0,0,0-.861,3.284,2.418,2.418,0,0,0,3.284.861c11.774-8.633,22.976-18.033,34.993-26.335l-3.283-.861c4.244,8.392,8.753,16.646,13.262,24.9q1.714,3.135,3.423,6.273c1.073,1.975,2.055,4.035,3.292,5.913a3.359,3.359,0,0,1,.848,1.874,3.421,3.421,0,0,1-.885,1.815,35.413,35.413,0,0,1-4.357,4.067c-6.478,5.721-13,11.393-19.679,16.881q-4.947,4.067-10.009,7.988c-3.462,2.672-6.925,5.435-10.592,7.823-3.012,1.962-6.611,4.087-10.264,4.454-3.459.346-6.833-1.248-9.472-3.371-5.842-4.7-9.274-11.929-11.171-19.038-2-7.509-2.4-15.333-2.238-23.071a212.34,212.34,0,0,1,1.975-24.5,182.252,182.252,0,0,1,13.3-47.9q1.313-3.012,2.726-5.979a2.467,2.467,0,0,0-.861-3.283,2.42,2.42,0,0,0-3.284.861Z"/>
<path class="a" d="M259.684,247.719c-1.533-.057-5.635-1.013-5.246-6.291.265-3.608,5.294-5.034,7-5,4.614.092,9.026.256,13.277.556,12.945.555,17.485,10.484,17.311,21.627-.078,4.985-.935,11.291-3.454,16.021-2.189,4.111-7.278,8.068-14.717,8.068-3.656-.057-8.424-.174-10.871-.733a7.656,7.656,0,0,1-5.954-4.946,11.633,11.633,0,0,1-.446-6.215c-3.8-.773-4.255-4.3-4.255-5.616,0-2.272.882-5.011,5.01-5.49-2.085-.22-5.774-1.18-5.7-6.006.067-4.267,4.125-6.036,6.283-6Z"/>
<path class="c" d="M105.759,131.845a21.228,21.228,0,0,0,10.223,2.361c3.637-.024,7.341-.728,10.258-3a2.413,2.413,0,0,0,0-3.394,2.462,2.462,0,0,0-3.394,0c.71-.553.095-.085-.087.031-.208.134-.423.257-.642.372-.151.079-.9.393-.305.165-.294.112-.586.226-.885.322a15.23,15.23,0,0,1-5.279.705,15.86,15.86,0,0,1-5.036-.678c-.324-.1-.64-.213-.959-.323-.1-.035-.2-.089-.31-.12.591.173.17.076.014,0-.4-.186-.788-.382-1.176-.586a2.452,2.452,0,0,0-3.283.861,2.425,2.425,0,0,0,.861,3.283Z"/>
<path class="c" d="M114.9,107.588a48.658,48.658,0,0,1,1.145,5.241l-.085-.638a3.18,3.18,0,0,1,.019.723l.086-.638a1.792,1.792,0,0,1-.079.325l.241-.573a1.282,1.282,0,0,1-.114.209l.375-.486a1.093,1.093,0,0,1-.171.169l.485-.375a3.356,3.356,0,0,1-.415.22l.574-.242a3.054,3.054,0,0,1-.7.2l.638-.086a2.831,2.831,0,0,1-.657,0l.638.086c-.247-.035-.49-.095-.738-.128a2.649,2.649,0,0,0-1.849.241,2.4,2.4,0,0,0-.861,3.284,2.3,2.3,0,0,0,1.434,1.1c.538.073,1.061.21,1.608.234a5.085,5.085,0,0,0,2.336-.551,3.305,3.305,0,0,0,1.853-2.189,5.6,5.6,0,0,0-.025-2.39c-.285-1.689-.675-3.362-1.109-5.018a2.4,2.4,0,0,0-4.629,1.276Z"/>
<path class="c" d="M86.91,92.824c-.875,2.844-.3,9.386,5.083,9.942,7.121-.042,7.5-7.952,5.1-11.671C95.133,88.05,89.362,86.784,86.91,92.824Z"/>
<path class="c" d="M143.935,92.824c.875,2.844.305,9.386-5.083,9.942-7.121-.042-7.5-7.952-5.1-11.671C135.712,88.05,141.483,86.784,143.935,92.824Z"/>
<path class="e" d="M257.923,245.291a9.065,9.065,0,0,0-6.8,3.246,8.78,8.78,0,0,0-.885,9.518c2.217,4.136,7.124,4.12,11.183,4.182,2.541.039,5.082.051,7.624.09a2.4,2.4,0,1,0,0-4.8c-3.675-.056-7.37.033-11.04-.174-.26-.015-.519-.049-.778-.065-.314-.019.622.119.02,0-.2-.041-.4-.078-.6-.127-.357-.088-.7-.214-1.042-.334.651.225.041,0-.118-.088-.11-.061-.68-.445-.414-.245.294.221-.177-.168-.247-.238-.166-.167-.413-.59-.165-.163-.12-.208-.245-.411-.362-.621.046.082.15.473.02.045-.049-.162-.105-.321-.148-.486-.036-.138-.063-.278-.093-.418-.08-.371.023.36-.006-.041-.021-.291-.037-.582-.031-.874,0-.164.011-.328.026-.491-.037.4,0,.024.017-.055.038-.145.067-.29.109-.434.017-.057.22-.6.1-.32s.069-.127.1-.186c.085-.147.177-.29.262-.437.215-.373.053-.078-.017.005.107-.125.215-.247.33-.364s.747-.622.315-.316a7.736,7.736,0,0,1,.709-.453c.172-.1.856-.374.32-.182.24-.086.477-.173.724-.24.108-.03.595-.212.692-.151.025.015-.649.018-.206.034.132,0,.267-.013.4-.013a2.4,2.4,0,0,0,0-4.8Z"/>
<path class="e" d="M256.212,257.456a7.42,7.42,0,0,0-5.814,4.767,9.3,9.3,0,0,0-.243,4.982,7.765,7.765,0,0,0,3.061,4.741c2.076,1.526,4.7,1.386,7.142,1.463,2.331.073,4.658.185,6.99.223a2.4,2.4,0,0,0,0-4.8c-1.88-.03-3.758-.1-5.636-.173q-1.255-.052-2.51-.081c-.537-.013-1.077,0-1.614-.04-.141-.01-.284-.022-.424-.039.1.012.469.1.044-.01-.239-.061-.475-.128-.714-.191-.41-.108.373.223-.129-.049-.162-.088-.318-.186-.479-.274-.353-.2.353.35-.046-.03-.138-.13-.269-.264-.4-.4-.384-.39.188.331,0,0-.077-.132-.167-.257-.242-.392a2.95,2.95,0,0,1-.2-.4c.018-.014.218.6.1.229-.025-.077-.057-.152-.083-.229a6.7,6.7,0,0,1-.21-.777,4.024,4.024,0,0,0-.074-.414c.09.265.057.62.031.166-.01-.182-.022-.362-.023-.544s0-.336.016-.5c0-.073.013-.146.016-.219.018-.491-.1.4-.02.124.061-.215.084-.443.145-.659.02-.073.047-.144.066-.217.1-.416.087.071-.052.075a4.532,4.532,0,0,0,.287-.547c.04-.065.095-.129.129-.2.117-.233-.336.337-.029.046.162-.153.317-.311.484-.46-.434.389.1-.036.261-.122.113-.061.229-.118.346-.171-.321.145-.1.051.1-.014a8.523,8.523,0,0,1,1.007-.241,2.412,2.412,0,0,0,1.676-2.952,2.463,2.463,0,0,0-2.952-1.676Z"/>
<path class="e" d="M254.2,270.531c-.84,5.178.892,10.872,6.032,13.05a19.684,19.684,0,0,0,6.24,1.244c2.457.189,4.923.236,7.386.275a2.4,2.4,0,0,0,0-4.8c-2.149-.034-4.3-.078-6.443-.21-.935-.058-1.872-.129-2.8-.249.508.066-.182-.032-.23-.04-.194-.033-.388-.068-.581-.109-.372-.079-.742-.174-1.106-.289a4.971,4.971,0,0,1-3-2.346,8.316,8.316,0,0,1-.867-5.25,2.474,2.474,0,0,0-1.676-2.952,2.419,2.419,0,0,0-2.953,1.676Z"/>
<path class="e" d="M273.855,285.1a20.208,20.208,0,0,0,12.379-4.116,19.2,19.2,0,0,0,6.275-9.61A43.807,43.807,0,0,0,294.43,257.8a30.878,30.878,0,0,0-1.69-10.447,19.333,19.333,0,0,0-5.677-8.4,19.816,19.816,0,0,0-10.346-4.2c-2.421-.3-4.889-.363-7.324-.473-2.637-.12-5.316-.316-7.955-.251a10.661,10.661,0,0,0-8.347,4.194c-2.348,3.436-.883,8.781,2.653,10.791a8.982,8.982,0,0,0,3.882,1.1c2.823.187,5.67.129,8.5.23,3.089.11,3.085-4.69,0-4.8-2.124-.076-4.25-.107-6.374-.163-.792-.02-1.582-.054-2.373-.086.068,0,.442.11-.028-.017-.226-.062-.453-.117-.678-.182a3.677,3.677,0,0,1-.356-.128c.031.013.365.173.123.041-.213-.117-.424-.228-.625-.363.358.24-.168-.155-.269-.256-.3-.295-.141-.053-.335-.457a3.682,3.682,0,0,1-.375-1.249,5.092,5.092,0,0,1,0-1.258c-.051.318.26-.615.122-.337a4.389,4.389,0,0,1,2.161-1.709,9.677,9.677,0,0,1,1.618-.482c.243-.051.75-.08.236-.052.321-.018.634-.016.956-.01,4.512.088,9.028.261,13.529.589a14.022,14.022,0,0,1,12.453,8.683c2.365,5.706,2.123,12.745.82,18.785-.776,3.6-2,7.18-4.686,9.681a15,15,0,0,1-10.192,3.724c-3.087.032-3.1,4.832,0,4.8Z"/>
</g>
</svg>